<svg xmlns="http://www.w3.org/2000/svg" width="28.929" height="28.929" viewBox="0 0 28.929 28.929"><path d="M28.929,0V28.929H0V0ZM15.18,28.034l-.014,0-.086.042-.024,0-.017,0-.086-.043a.027.027,0,0,0-.029.007l0,.012-.02.516.006.024.012.016.125.089.018,0,.014,0,.125-.089.014-.019,0-.02-.02-.515a.026.026,0,0,0-.019-.022M15.5,27.9l-.017,0-.222.112-.012.012,0,.013.022.518.006.014.01.01.242.111a.031.031,0,0,0,.035-.01l0-.017-.041-.74A.032.032,0,0,0,15.5,27.9m-.862,0a.028.028,0,0,0-.033.007l-.007.017-.041.74a.03.03,0,0,0,.02.029l.018,0,.242-.112.012-.01,0-.013.022-.518,0-.014-.012-.012Z" fill="none" fill-rule="evenodd"/><path d="M15.414,3a1.507,1.507,0,0,0-2.6,0L9.443,8.778,2.9,10.2a1.507,1.507,0,0,0-.8,2.476l4.46,4.991-.675,6.66a1.507,1.507,0,0,0,2.107,1.531l6.126-2.7,6.126,2.7a1.507,1.507,0,0,0,2.107-1.531l-.675-6.66,4.46-4.99a1.507,1.507,0,0,0-.8-2.477L18.783,8.779Zm-1.3,17.664a1.5,1.5,0,0,1,.607.128l5.07,2.235-.558-5.512a1.507,1.507,0,0,1,.376-1.156L23.3,12.224l-5.414-1.173a1.507,1.507,0,0,1-.984-.714L14.113,5.55Z" transform="translate(0.352 0.462)" fill="#edbf00" fill-rule="evenodd"/></svg>