<svg xmlns="http://www.w3.org/2000/svg" width="28.929" height="28.929" viewBox="0 0 28.929 28.929"><path d="M28.929,0V28.929H0V0ZM15.179,28.034l-.013,0-.086.042-.024,0-.017,0-.086-.042a.025.025,0,0,0-.029.006l0,.012-.02.516.006.024.012.016.125.089.018,0,.014,0,.125-.089.014-.019,0-.02-.02-.515a.026.026,0,0,0-.02-.022M15.5,27.9l-.016,0-.223.112-.012.012,0,.013.022.518.006.014.01.008.242.112a.031.031,0,0,0,.035-.01l0-.017-.041-.74A.032.032,0,0,0,15.5,27.9m-.862,0a.028.028,0,0,0-.033.007l-.007.017-.041.74a.03.03,0,0,0,.02.029l.018,0,.242-.112.012-.01,0-.013.02-.518,0-.014-.012-.012Z" fill="none" fill-rule="evenodd"/><path d="M12.811,3a1.507,1.507,0,0,1,2.6,0l3.369,5.783L25.326,10.2a1.507,1.507,0,0,1,.8,2.476l-4.46,4.991.675,6.66a1.507,1.507,0,0,1-2.107,1.531l-6.126-2.7-6.126,2.7A1.507,1.507,0,0,1,5.88,24.323l.675-6.66L2.1,12.673A1.507,1.507,0,0,1,2.9,10.2L9.442,8.779Zm1.3,2.554-2.788,4.788a1.507,1.507,0,0,1-.984.714L4.927,12.224l3.691,4.131a1.509,1.509,0,0,1,.376,1.156l-.558,5.512,5.07-2.235a1.507,1.507,0,0,1,1.215,0l5.07,2.235-.558-5.512a1.507,1.507,0,0,1,.375-1.156L23.3,12.224l-5.414-1.173a1.507,1.507,0,0,1-.984-.714Z" transform="translate(0.351 0.462)" fill="#edbf00" fill-rule="evenodd"/></svg>