<svg xmlns="http://www.w3.org/2000/svg" width="24" height="24" viewBox="0 0 24 24"><g transform="translate(-286 -309)"><g transform="translate(286 309)"><path d="M24,0V24H0V0ZM12.593,23.258l-.011,0-.071.035-.02,0-.014,0-.071-.035a.02.02,0,0,0-.024,0l0,.01-.017.428,0,.02.01.013.1.074.015,0,.012,0,.1-.074.012-.016,0-.017-.017-.427a.021.021,0,0,0-.017-.018m.265-.113-.013,0-.185.093-.01.01,0,.011.018.43.005.012.008.007.2.093a.025.025,0,0,0,.029-.008l0-.014-.034-.614a.027.027,0,0,0-.02-.022m-.715,0a.023.023,0,0,0-.027.006l-.006.014-.034.614a.025.025,0,0,0,.017.024l.015,0,.2-.093.01-.008,0-.011.017-.43,0-.012-.01-.01Z" fill="none" fill-rule="evenodd"/><path d="M9.938,2.163a2.786,2.786,0,0,1,2.084.675l.139.13,7.263,7.264a2.786,2.786,0,0,1,.125,3.805l-.125.134-5.253,5.253a2.786,2.786,0,0,1-3.805.125l-.134-.125L2.967,12.16a2.786,2.786,0,0,1-.815-2.032l.01-.19L2.6,5.123a2.786,2.786,0,0,1,2.356-2.5l.166-.02Zm.286,1.847-.118,0-4.815.438a.929.929,0,0,0-.825.731l-.016.11-.438,4.815a.929.929,0,0,0,.191.653l.077.088,7.264,7.264a.929.929,0,0,0,1.226.077l.087-.077,5.253-5.253a.929.929,0,0,0,.077-1.226l-.077-.087L10.847,4.281a.929.929,0,0,0-.623-.271M6.948,6.949a2.786,2.786,0,1,1,0,3.94,2.786,2.786,0,0,1,0-3.94M9.575,8.262a.929.929,0,1,0,0,1.313.929.929,0,0,0,0-1.313" transform="translate(0.662 0.662)" fill="#f6f6f6" fill-rule="evenodd"/></g></g></svg>