<svg xmlns="http://www.w3.org/2000/svg" width="24" height="24" viewBox="0 0 24 24"><g transform="translate(-504 -310)"><g transform="translate(505 311)"><path d="M22,0V22H0V0ZM11.544,21.32l-.01,0-.065.032-.018,0-.013,0-.065-.032a.019.019,0,0,0-.022,0l0,.009-.016.392,0,.018.009.012.1.068.014,0,.011,0,.1-.068.011-.015,0-.016-.016-.391a.019.019,0,0,0-.016-.016m.243-.1-.012,0-.17.085-.009.009,0,.01.016.394,0,.011.007.006.184.085a.023.023,0,0,0,.027-.007l0-.013-.031-.563a.025.025,0,0,0-.018-.02m-.655,0a.021.021,0,0,0-.025.006l-.005.013-.031.563a.023.023,0,0,0,.016.022l.014,0,.184-.085.009-.007,0-.01.016-.394,0-.011L11.3,21.3Z" fill="none"/><path d="M10.737,5.9a.967.967,0,0,1,0,1.934h-5.8V18.475H15.573v-5.8a.967.967,0,1,1,1.934,0v5.8a1.934,1.934,0,0,1-1.934,1.934H4.934A1.934,1.934,0,0,1,3,18.475V7.836A1.934,1.934,0,0,1,4.934,5.9Zm8.7-2.9a.967.967,0,0,1,.967.967V8.8a.967.967,0,0,1-1.934,0V6.3l-8.021,8.021a.967.967,0,1,1-1.368-1.368l8.021-8.021h-2.5a.967.967,0,1,1,0-1.934Z" transform="translate(-0.704 -0.704)" fill="#f6f6f6"/></g><rect width="24" height="24" transform="translate(504 310)" fill="none"/></g></svg>