<svg xmlns="http://www.w3.org/2000/svg" width="24" height="24" viewBox="0 0 24 24"><path d="M24,0V24H0V0ZM12.593,23.258l-.011,0-.071.035-.02,0-.014,0-.071-.035a.02.02,0,0,0-.024,0l0,.01-.017.428.005.02.01.013.1.074.015,0,.012,0,.1-.074.012-.016,0-.017-.017-.427a.021.021,0,0,0-.017-.018m.265-.113-.013,0-.185.093-.01.01,0,.011.018.43.005.012.008.007.2.093a.025.025,0,0,0,.029-.008l0-.014-.034-.614a.027.027,0,0,0-.02-.022m-.715,0a.023.023,0,0,0-.027.006l-.006.014-.034.614a.025.025,0,0,0,.017.024l.015,0,.2-.093.01-.008,0-.011.017-.43,0-.012-.01-.01Z" fill="none" fill-rule="evenodd"/><path d="M12,13.414l5.657,5.657a1,1,0,1,0,1.414-1.414L13.414,12l5.657-5.657a1,1,0,1,0-1.414-1.414L12,10.586,6.343,4.929A1,1,0,0,0,4.93,6.343L10.586,12,4.929,17.657a1,1,0,1,0,1.414,1.414Z" fill="#f6f6f6" fill-rule="evenodd"/></svg>