<svg xmlns="http://www.w3.org/2000/svg" width="24" height="24" viewBox="0 0 24 24"><g transform="translate(-787 -309)"><path d="M24,0V24H0V0ZM12.593,23.258l-.011,0-.071.035-.02,0-.014,0-.071-.035a.02.02,0,0,0-.024,0l0,.01-.017.428,0,.02.01.013.1.074.015,0,.012,0,.1-.074.012-.016,0-.017-.017-.427a.021.021,0,0,0-.017-.018m.265-.113-.013,0-.185.093-.01.01,0,.011.018.43.005.012.008.007.2.093a.025.025,0,0,0,.029-.008l0-.014-.034-.614a.027.027,0,0,0-.02-.022m-.715,0a.023.023,0,0,0-.027.006l-.006.014-.034.614a.025.025,0,0,0,.017.024l.015,0,.2-.093.01-.008,0-.011.017-.43,0-.012-.01-.01Z" transform="translate(787 309)" fill="none"/><path d="M13.273,7.251h2.059a3.4,3.4,0,0,1,2.63,1.256,3.55,3.55,0,0,1,.74,2.866l-.779,4.371a3.445,3.445,0,0,1-3.368,2.871H7.28V8.125L8.839,3.066a1.574,1.574,0,0,1,1.733-.988,3.157,3.157,0,0,1,2.7,2.988Zm-7.7.874A2.6,2.6,0,0,0,3,10.747v5.245a2.6,2.6,0,0,0,2.568,2.622Z" transform="translate(788 310.951)" fill="#f6f6f6"/></g></svg>