<svg xmlns="http://www.w3.org/2000/svg" width="220.038" height="42.514" viewBox="0 0 220.038 42.514"><g transform="translate(-24.568 -30.999)"><path d="M28.542,0V28.662q0,6.656-3.748,10.254t-10.1,3.6q-6.656,0-10.673-3.777T0,28H10.194a6.279,6.279,0,0,0,1.079,3.987,3.758,3.758,0,0,0,3.118,1.349,3.571,3.571,0,0,0,2.878-1.2,5.231,5.231,0,0,0,1.019-3.478V0Z" transform="translate(24.568 31)" fill="#d00"/><path d="M144.494,34.658h-15.71l-2.519,7.435H115.533L130.763,0h11.872l15.23,42.093H147.013Zm-2.638-7.915-5.217-15.41-5.157,15.41Z" transform="translate(-61.225 31)" fill="#fff"/><path d="M292.859,0l-14.93,42.093H265.1L250.167,0H261.08l10.434,31.78L282.006,0Z" transform="translate(-161.201 31)" fill="#d00"/><path d="M451.223,42.092,442.469,26.2H440.01v15.89H429.757V0h17.209a18.95,18.95,0,0,1,8.484,1.739A11.986,11.986,0,0,1,460.7,6.505a13.3,13.3,0,0,1,1.739,6.746,12.528,12.528,0,0,1-2.369,7.5,12.749,12.749,0,0,1-6.986,4.677L462.8,42.092ZM440.01,18.947h6.356a5.817,5.817,0,0,0,4.227-1.379,5.208,5.208,0,0,0,1.409-3.9,5.047,5.047,0,0,0-1.409-3.778,5.822,5.822,0,0,0-4.227-1.379H440.01Z" transform="translate(-294.561 31)" fill="#fff"/><path d="M585.591,8.214v8.514h13.731v7.915H585.591v9.234h15.53v8.215H575.337V0h25.783V8.214Z" transform="translate(-402.666 31)" fill="#fff"/><path d="M731.63,0,716.7,42.093H703.868L688.938,0h10.913l10.433,31.78L720.777,0Z" transform="translate(-487.023 31)" fill="#d00"/></g></svg>