<svg xmlns="http://www.w3.org/2000/svg" width="24" height="24" viewBox="0 0 24 24"><g transform="translate(-201 -309)"><path d="M24,0V24H0V0ZM12.593,23.258l-.011,0-.071.035-.02,0-.014,0-.071-.035a.02.02,0,0,0-.024,0l0,.01-.017.428.005.02.01.013.1.074.015,0,.012,0,.1-.074.012-.016,0-.017-.017-.427a.021.021,0,0,0-.017-.018m.265-.113-.013,0-.185.093-.01.01,0,.011.018.43.005.012.008.007.2.093a.025.025,0,0,0,.029-.008l0-.014-.034-.614a.027.027,0,0,0-.02-.022m-.715,0a.023.023,0,0,0-.027.006l-.006.014-.034.614a.025.025,0,0,0,.017.024l.015,0,.2-.093.01-.008,0-.011.017-.43,0-.012-.01-.01Z" transform="translate(201 309)" fill="none" fill-rule="evenodd"/><path d="M10.252,2a8.252,8.252,0,1,0,5.109,14.734l3.546,3.546a.971.971,0,1,0,1.373-1.373l-3.546-3.545A8.252,8.252,0,0,0,10.252,2M3.942,10.252a6.311,6.311,0,1,1,6.311,6.311,6.311,6.311,0,0,1-6.311-6.311" transform="translate(202 310)" fill="#fff" fill-rule="evenodd"/></g></svg>