<svg xmlns="http://www.w3.org/2000/svg" width="24" height="24" viewBox="0 0 24 24"><g transform="translate(-244 -309)"><path d="M24,0V24H0V0ZM12.593,23.258l-.011,0-.071.035-.02,0-.014,0-.071-.035a.02.02,0,0,0-.024,0l0,.01-.017.428.005.02.01.013.1.074.015,0,.012,0,.1-.074.012-.016,0-.017-.017-.427a.021.021,0,0,0-.017-.018m.265-.113-.013,0-.185.093-.01.01,0,.011.018.43,0,.012.008.007.2.093a.025.025,0,0,0,.029-.008l0-.014-.034-.614a.027.027,0,0,0-.02-.022m-.715,0a.023.023,0,0,0-.027.006l-.006.014-.034.614a.025.025,0,0,0,.017.024l.015,0,.2-.093.01-.008,0-.011.017-.43,0-.012-.01-.01Z" transform="translate(244 309)" fill="none" fill-rule="evenodd"/><path d="M17.824,3.988a.988.988,0,1,0-1.977,0v.988H3.988a.988.988,0,0,0,0,1.977H15.847v.988a.988.988,0,1,0,1.977,0V6.953H19.8a.988.988,0,0,0,0-1.977H17.824ZM3.988,10.906a.988.988,0,1,0,0,1.977H5.965v.988a.988.988,0,1,0,1.977,0v-.988H19.8a.988.988,0,0,0,0-1.977H7.941V9.918a.988.988,0,0,0-1.977,0v.988ZM3,17.824a.988.988,0,0,1,.988-.988H15.847v-.988a.988.988,0,0,1,1.977,0v.988H19.8a.988.988,0,0,1,0,1.977H17.824V19.8a.988.988,0,0,1-1.977,0v-.988H3.988A.988.988,0,0,1,3,17.824" transform="translate(244 309)" fill="#f6f6f6" fill-rule="evenodd"/></g></svg>