<svg xmlns="http://www.w3.org/2000/svg" width="24" height="24" viewBox="0 0 24 24"><g transform="translate(343 333) rotate(180)"><path d="M24,0V24H0V0ZM12.593,23.258l-.011,0-.071.035-.02,0-.014,0-.071-.035a.02.02,0,0,0-.024,0l0,.01-.017.428.005.02.01.013.1.074.015,0,.012,0,.1-.074.012-.016,0-.017-.017-.427a.021.021,0,0,0-.017-.018m.265-.113-.013,0-.185.093-.01.01,0,.011.018.43.005.012.008.007.2.093a.025.025,0,0,0,.029-.008l0-.014-.034-.614a.027.027,0,0,0-.02-.022m-.715,0a.023.023,0,0,0-.027.006l-.006.014-.034.614a.025.025,0,0,0,.017.024l.015,0,.2-.093.01-.008,0-.011.017-.43,0-.012-.01-.01Z" transform="translate(319 309)" fill="none" fill-rule="evenodd"/><path d="M13.818,16.818a1.638,1.638,0,0,1-2.316,0L5.323,10.64A1.639,1.639,0,0,1,7.64,8.324l5.02,5.02,5.02-5.02A1.638,1.638,0,1,1,20,10.639l-6.179,6.18Z" transform="translate(318.156 333.478) rotate(-90)" fill="#f6f6f6" fill-rule="evenodd"/></g></svg>