<svg xmlns="http://www.w3.org/2000/svg" width="24" height="24" viewBox="0 0 24 24"><g transform="translate(-653 -310)"><circle cx="10" cy="10" r="10" transform="translate(655 312)" fill="#818181"/><g transform="translate(653 310)"><path d="M24,0V24H0V0ZM12.593,23.258l-.011,0-.071.035-.02,0-.014,0-.071-.035a.02.02,0,0,0-.024,0l0,.01-.017.428.005.02.01.013.1.074.015,0,.012,0,.1-.074.012-.016,0-.017-.017-.427a.021.021,0,0,0-.017-.018m.265-.113-.013,0-.185.093-.01.01,0,.011.018.43.005.012.008.007.2.093a.025.025,0,0,0,.029-.008l0-.014-.034-.614a.027.027,0,0,0-.02-.022m-.715,0a.023.023,0,0,0-.027.006l-.006.014-.034.614a.025.025,0,0,0,.017.024l.015,0,.2-.093.01-.008,0-.011.017-.43,0-.012-.01-.01Z" fill="none"/><path d="M12,2A10,10,0,1,1,2,12,10,10,0,0,1,12,2m0,14a1,1,0,1,0,1,1,1,1,0,0,0-1-1m0-9.5a3.625,3.625,0,0,0-3.625,3.625,1,1,0,0,0,2,0,1.625,1.625,0,1,1,2.23,1.51A2.38,2.38,0,0,0,11,13.75V14a1,1,0,0,0,2,0,.429.429,0,0,1,.261-.47l.087-.04A3.626,3.626,0,0,0,12,6.5" fill="#343434"/></g></g></svg>