<svg xmlns="http://www.w3.org/2000/svg" width="24" height="24" viewBox="0 0 24 24"><g transform="translate(-546 -310)"><path d="M14.168,0V14.168H0V0ZM7.434,13.73H7.428l-.042.021-.012,0-.008,0-.042-.021a.012.012,0,0,0-.014,0l0,.006-.01.253L7.3,14l.006.008.061.044.009,0,.007,0,.061-.044L7.452,14l0-.01-.01-.252a.013.013,0,0,0-.01-.011m.156-.067H7.583l-.109.055-.006.006,0,.006.011.254,0,.007,0,0,.119.055a.015.015,0,0,0,.017,0l0-.008-.02-.362a.016.016,0,0,0-.012-.013m-.422,0a.014.014,0,0,0-.016,0l0,.008-.02.362a.015.015,0,0,0,.01.014h.009L7.267,14l.006,0,0-.006.01-.254,0-.007-.006-.006Z" transform="translate(551 315)" fill="none"/><g transform="translate(1 1)"><path d="M7.553,13.553a.947.947,0,1,0,1.895,0V9.447h4.105a.947.947,0,1,0,0-1.895H9.447V3.447a.947.947,0,1,0-1.895,0V7.553H3.447a.947.947,0,1,0,0,1.895H7.553Z" transform="translate(548.5 312.5)" fill="#f6f6f6"/><g transform="translate(546 310)" fill="none" stroke="#f6f6f6" stroke-width="1.2"><circle cx="11" cy="11" r="11" stroke="none"/><circle cx="11" cy="11" r="10.4" fill="none"/></g></g><rect width="24" height="24" transform="translate(546 310)" fill="none"/></g></svg>