<svg xmlns="http://www.w3.org/2000/svg" width="83.363" height="83.363" viewBox="0 0 83.363 83.363"><g transform="translate(-1336.137 -100.5)"><path d="M19.807,0V19.891q0,4.619-2.6,7.116A9.7,9.7,0,0,1,10.2,29.5a10.373,10.373,0,0,1-7.407-2.621Q0,24.26,0,19.433H7.074A4.358,4.358,0,0,0,7.823,22.2a2.608,2.608,0,0,0,2.164.936,2.478,2.478,0,0,0,2-.832,3.63,3.63,0,0,0,.707-2.414V0Z" transform="translate(1352.039 114.519)" fill="#fff"/><path d="M444.654,29.212l-6.075-11.027h-1.706V29.212h-7.116V0H441.7a13.15,13.15,0,0,1,5.888,1.207,8.318,8.318,0,0,1,3.641,3.308A9.233,9.233,0,0,1,452.436,9.2a8.7,8.7,0,0,1-1.644,5.2,8.848,8.848,0,0,1-4.848,3.246l6.741,11.568Zm-7.781-16.063h4.411a4.037,4.037,0,0,0,2.934-.957,3.614,3.614,0,0,0,.978-2.7,3.5,3.5,0,0,0-.978-2.622,4.04,4.04,0,0,0-2.934-.957h-4.411Z" transform="translate(949.293 114.507)" fill="#fff"/><path d="M6.483,0V6.51a3.078,3.078,0,0,1-.851,2.329,3.176,3.176,0,0,1-2.295.817A3.4,3.4,0,0,1,.912,8.8,3.184,3.184,0,0,1,0,6.36H2.315a1.426,1.426,0,0,0,.245.906.854.854,0,0,0,.708.306A.811.811,0,0,0,3.922,7.3a1.188,1.188,0,0,0,.231-.79V0Z" transform="translate(1352.283 156.101)" fill="#fff"/><path d="M122.111,7.872h-3.568l-.572,1.689h-2.438L118.992,0h2.7l3.459,9.561h-2.465Zm-.6-1.8-1.185-3.5-1.171,3.5Z" transform="translate(1243.506 156.101)" fill="#fff"/><path d="M259.864,0l-3.391,9.561h-2.915L250.167,0h2.479l2.37,7.218L257.4,0Z" transform="translate(1116.744 156.102)" fill="#fff"/><path d="M434.633,9.56l-1.988-3.609h-.558V9.56h-2.329V0h3.909a4.3,4.3,0,0,1,1.927.4,2.722,2.722,0,0,1,1.192,1.083,3.022,3.022,0,0,1,.4,1.532,2.845,2.845,0,0,1-.538,1.7,2.9,2.9,0,0,1-1.587,1.062l2.206,3.786ZM432.086,4.3h1.444a1.321,1.321,0,0,0,.96-.313,1.183,1.183,0,0,0,.32-.885,1.146,1.146,0,0,0-.32-.858,1.322,1.322,0,0,0-.96-.313h-1.444Z" transform="translate(947.654 156.102)" fill="#fff"/><path d="M577.666,1.866V3.8h3.119V5.6h-3.119v2.1h3.527V9.561h-5.856V0h5.856V1.866Z" transform="translate(810.586 156.102)" fill="#fff"/><path d="M698.635,0l-3.391,9.561h-2.914L688.938,0h2.479l2.37,7.218L696.17,0Z" transform="translate(703.627 156.102)" fill="#fff"/><rect width="49.992" height="0.658" transform="translate(1352.289 150.526)" fill="#fff"/><path d="M41.181,1.061a40.422,40.422,0,0,0-8.087.815A39.895,39.895,0,0,0,18.751,7.913,40.24,40.24,0,0,0,4.214,25.565a39.909,39.909,0,0,0-2.337,7.529,40.521,40.521,0,0,0,0,16.173A39.894,39.894,0,0,0,7.913,63.612,40.24,40.24,0,0,0,25.565,78.149a39.909,39.909,0,0,0,7.529,2.337,40.521,40.521,0,0,0,16.173,0A39.895,39.895,0,0,0,63.612,74.45,40.24,40.24,0,0,0,78.149,56.8a39.91,39.91,0,0,0,2.337-7.529,40.521,40.521,0,0,0,0-16.173A39.895,39.895,0,0,0,74.45,18.751,40.24,40.24,0,0,0,56.8,4.214a39.91,39.91,0,0,0-7.529-2.337,40.422,40.422,0,0,0-8.087-.815m0-1.061A41.181,41.181,0,1,1,0,41.181,41.181,41.181,0,0,1,41.181,0Z" transform="translate(1336.637 101)" fill="#fff" stroke="rgba(0,0,0,0)" stroke-miterlimit="10" stroke-width="1"/></g></svg>