<svg xmlns="http://www.w3.org/2000/svg" width="24" height="24" viewBox="0 0 24 24"><g transform="translate(-408 -309)"><path d="M24,0V24H0V0ZM12.593,23.258l-.011,0-.071.035-.02,0-.014,0-.071-.035a.02.02,0,0,0-.024,0l0,.01-.017.428.005.02.01.013.1.074.015,0,.012,0,.1-.074.012-.016,0-.017-.017-.427a.021.021,0,0,0-.017-.018m.265-.113-.013,0-.185.093-.01.01,0,.011.018.43.005.012.008.007.2.093a.025.025,0,0,0,.029-.008l0-.014-.034-.614a.027.027,0,0,0-.02-.022m-.715,0a.023.023,0,0,0-.027.006l-.006.014-.034.614a.025.025,0,0,0,.017.024l.015,0,.2-.093.01-.008,0-.011.017-.43,0-.012-.01-.01Z" transform="translate(408 309)" fill="none" fill-rule="evenodd"/><path d="M9.938,2A7.938,7.938,0,1,1,2,9.938,7.938,7.938,0,0,1,9.938,2m1.336,11.074a22.584,22.584,0,0,1-2.672,0,11.6,11.6,0,0,0,.4,1.665,4.391,4.391,0,0,0,.627,1.291c.07.087.177.259.306.259s.24-.18.3-.259a4.372,4.372,0,0,0,.627-1.291,11.391,11.391,0,0,0,.4-1.665Zm4.628-.949c-.21.09-.432.174-.661.25a13.647,13.647,0,0,1-2.334.532,13.647,13.647,0,0,1-.532,2.334q-.114.345-.25.661A6.369,6.369,0,0,0,15.9,12.125m-11.928,0A6.369,6.369,0,0,0,7.751,15.9q-.139-.325-.25-.661a13.647,13.647,0,0,1-.532-2.334,13.647,13.647,0,0,1-2.334-.532q-.345-.114-.661-.25M8.408,8.408a20.265,20.265,0,0,0,0,3.061,20.31,20.31,0,0,0,3.061,0,20.272,20.272,0,0,0,0-3.061,20.264,20.264,0,0,0-3.061,0m4.666.194a22.585,22.585,0,0,1,0,2.672,11.461,11.461,0,0,0,1.665-.4,4.391,4.391,0,0,0,1.291-.627c.087-.069.259-.178.259-.306s-.18-.24-.259-.3a4.372,4.372,0,0,0-1.291-.627,11.461,11.461,0,0,0-1.665-.4ZM6.8,8.6a11.626,11.626,0,0,0-1.665.4,4.4,4.4,0,0,0-1.291.627.77.77,0,0,0-.256.292c-.036.119.183.256.256.315a4.372,4.372,0,0,0,1.291.627,11.417,11.417,0,0,0,1.665.4,22.557,22.557,0,0,1,0-2.67Zm.949-4.628A6.37,6.37,0,0,0,3.974,7.751c.21-.09.432-.174.661-.25a13.647,13.647,0,0,1,2.334-.532A13.647,13.647,0,0,1,7.5,4.635q.114-.345.25-.661m4.374,0c.09.21.174.432.25.661a13.647,13.647,0,0,1,.532,2.334,13.647,13.647,0,0,1,2.334.532q.345.114.661.25a6.369,6.369,0,0,0-3.777-3.777M9.938,3.588c-.11,0-.248.188-.3.259a4.372,4.372,0,0,0-.627,1.291A11.46,11.46,0,0,0,8.6,6.8a22.557,22.557,0,0,1,2.67,0,11.46,11.46,0,0,0-.4-1.665,4.382,4.382,0,0,0-.627-1.291c-.056-.071-.192-.259-.3-.259" transform="translate(410 311)" fill="#f6f6f6"/></g></svg>