<svg xmlns="http://www.w3.org/2000/svg" width="24" height="24" viewBox="0 0 24 24"><g transform="translate(-353 -309)"><path d="M24,0V24H0V0ZM12.593,23.258l-.011,0-.071.035-.02,0-.014,0-.071-.035a.02.02,0,0,0-.024,0l0,.01-.017.428.005.02.01.013.1.074.015,0,.012,0,.1-.074.012-.016,0-.017-.017-.427a.021.021,0,0,0-.017-.018m.265-.113-.013,0-.185.093-.01.01,0,.011.018.43.005.012.008.007.2.093a.025.025,0,0,0,.029-.008l0-.014-.034-.614a.027.027,0,0,0-.02-.022m-.715,0a.023.023,0,0,0-.027.006l-.006.014-.034.614a.025.025,0,0,0,.017.024l.015,0,.2-.093.01-.008,0-.011.017-.43,0-.012-.01-.01Z" transform="translate(353 309)" fill="none" fill-rule="evenodd"/><path d="M16.467,3.948A.965.965,0,1,0,15.1,2.583L11.347,6.337a.483.483,0,0,1-.683,0L8.275,3.948A.965.965,0,0,0,6.91,5.312L8.275,6.677c.055.055.112.108.169.159H4.931A1.931,1.931,0,0,0,3,8.767v9.654a1.931,1.931,0,0,0,1.931,1.931H18.446a1.931,1.931,0,0,0,1.931-1.931V8.768a1.931,1.931,0,0,0-1.931-1.931H13.568q.086-.077.168-.159ZM4.931,8.768H18.446v9.654H4.931Z" transform="translate(353 307.7)" fill="#fff" fill-rule="evenodd"/></g></svg>